<?xml version="1.0" encoding="UTF-8" standalone="no"?>
<!-- Created with Inkscape (http://www.inkscape.org/) -->

<svg
   xmlns:dc="http://purl.org/dc/elements/1.1/"
   xmlns:cc="http://creativecommons.org/ns#"
   xmlns:rdf="http://www.w3.org/1999/02/22-rdf-syntax-ns#"
   xmlns:svg="http://www.w3.org/2000/svg"
   xmlns="http://www.w3.org/2000/svg"
   xmlns:sodipodi="http://sodipodi.sourceforge.net/DTD/sodipodi-0.dtd"
   xmlns:inkscape="http://www.inkscape.org/namespaces/inkscape"
   sodipodi:docname="overview-training.svg"
   inkscape:version="0.92.2 2405546, 2018-03-11"
   width="297mm"
   height="210mm"
   viewBox="0 0 297 210"
   version="1.1"
   id="svg8">
  <sodipodi:namedview
     fit-margin-bottom="1"
     fit-margin-top="1"
     fit-margin-right="1"
     fit-margin-left="1"
     inkscape:snap-global="false"
     inkscape:snap-text-baseline="false"
     id="base"
     pagecolor="#ffffff"
     bordercolor="#666666"
     borderopacity="1.0"
     inkscape:pageopacity="0.0"
     inkscape:pageshadow="2"
     inkscape:zoom="0.98994949"
     inkscape:cx="574.72868"
     inkscape:cy="546.35742"
     inkscape:document-units="mm"
     inkscape:current-layer="svg8"
     showgrid="false"
     inkscape:window-width="2560"
     inkscape:window-height="1388"
     inkscape:window-x="0"
     inkscape:window-y="28"
     inkscape:window-maximized="1" />
  <defs
     id="defs2">
    <marker
       inkscape:stockid="Arrow1Send"
       orient="auto"
       refY="0.0"
       refX="0.0"
       id="Arrow1Send"
       style="overflow:visible;"
       inkscape:isstock="true">
      <path
         id="path1148"
         d="M 0.0,0.0 L 5.0,-5.0 L -12.5,0.0 L 5.0,5.0 L 0.0,0.0 z "
         style="fill-rule:evenodd;stroke:#000000;stroke-width:1pt;stroke-opacity:1;fill:#000000;fill-opacity:1"
         transform="scale(0.2) rotate(180) translate(6,0)" />
    </marker>
    <marker
       inkscape:stockid="Arrow1Lend"
       orient="auto"
       refY="0.0"
       refX="0.0"
       id="marker1396"
       style="overflow:visible;"
       inkscape:isstock="true">
      <path
         id="path1136"
         d="M 0.0,0.0 L 5.0,-5.0 L -12.5,0.0 L 5.0,5.0 L 0.0,0.0 z "
         style="fill-rule:evenodd;stroke:#000000;stroke-width:1pt;stroke-opacity:1;fill:#000000;fill-opacity:1"
         transform="scale(0.8) rotate(180) translate(12.5,0)" />
    </marker>
    <marker
       inkscape:isstock="true"
       style="overflow:visible"
       id="marker9435"
       refX="0"
       refY="0"
       orient="auto"
       inkscape:stockid="Arrow1Lend">
      <path
         transform="matrix(-0.8,0,0,-0.8,-10,0)"
         style="fill:#000000;fill-opacity:1;fill-rule:evenodd;stroke:#000000;stroke-width:1.00000003pt;stroke-opacity:1"
         d="M 0,0 5,-5 -12.5,0 5,5 Z"
         id="path9433"
         inkscape:connector-curvature="0" />
    </marker>
    <marker
       inkscape:stockid="Arrow1Lend"
       orient="auto"
       refY="0"
       refX="0"
       id="marker6392"
       style="overflow:visible"
       inkscape:isstock="true">
      <path
         id="path6390"
         d="M 0,0 5,-5 -12.5,0 5,5 Z"
         style="fill:#ff0000;fill-opacity:1;fill-rule:evenodd;stroke:#ff0000;stroke-width:1.00000003pt;stroke-opacity:1"
         transform="matrix(-0.8,0,0,-0.8,-10,0)"
         inkscape:connector-curvature="0" />
    </marker>
    <marker
       inkscape:isstock="true"
       style="overflow:visible"
       id="marker6061"
       refX="0"
       refY="0"
       orient="auto"
       inkscape:stockid="Arrow1Lend">
      <path
         transform="matrix(-0.8,0,0,-0.8,-10,0)"
         style="fill:#ff0000;fill-opacity:1;fill-rule:evenodd;stroke:#ff0000;stroke-width:1.00000003pt;stroke-opacity:1"
         d="M 0,0 5,-5 -12.5,0 5,5 Z"
         id="path6059"
         inkscape:connector-curvature="0" />
    </marker>
    <marker
       inkscape:stockid="Arrow1Lend"
       orient="auto"
       refY="0"
       refX="0"
       id="marker6037"
       style="overflow:visible"
       inkscape:isstock="true"
       inkscape:collect="always">
      <path
         id="path6035"
         d="M 0,0 5,-5 -12.5,0 5,5 Z"
         style="fill:#ff0000;fill-opacity:1;fill-rule:evenodd;stroke:#ff0000;stroke-width:1.00000003pt;stroke-opacity:1"
         transform="matrix(-0.8,0,0,-0.8,-10,0)"
         inkscape:connector-curvature="0" />
    </marker>
    <marker
       inkscape:stockid="Arrow1Lend"
       orient="auto"
       refY="0"
       refX="0"
       id="Arrow1Lend"
       style="overflow:visible"
       inkscape:isstock="true">
      <path
         id="path5466"
         d="M 0,0 5,-5 -12.5,0 5,5 Z"
         style="fill:#ff0000;fill-opacity:1;fill-rule:evenodd;stroke:#ff0000;stroke-width:1.00000003pt;stroke-opacity:1"
         transform="matrix(-0.8,0,0,-0.8,-10,0)"
         inkscape:connector-curvature="0" />
    </marker>
    <marker
       inkscape:stockid="Arrow1Lstart"
       orient="auto"
       refY="0"
       refX="0"
       id="marker5753"
       style="overflow:visible"
       inkscape:isstock="true">
      <path
         id="path5751"
         d="M 0,0 5,-5 -12.5,0 5,5 Z"
         style="fill:#000000;fill-opacity:1;fill-rule:evenodd;stroke:#000000;stroke-width:1.00000003pt;stroke-opacity:1"
         transform="matrix(0.8,0,0,0.8,10,0)"
         inkscape:connector-curvature="0" />
    </marker>
    <marker
       inkscape:stockid="Arrow1Lstart"
       orient="auto"
       refY="0"
       refX="0"
       id="Arrow1Lstart"
       style="overflow:visible"
       inkscape:isstock="true">
      <path
         id="path5463"
         d="M 0,0 5,-5 -12.5,0 5,5 Z"
         style="fill:#000000;fill-opacity:1;fill-rule:evenodd;stroke:#000000;stroke-width:1.00000003pt;stroke-opacity:1"
         transform="matrix(0.8,0,0,0.8,10,0)"
         inkscape:connector-curvature="0" />
    </marker>
    <marker
       inkscape:isstock="true"
       style="overflow:visible"
       id="marker9435-7"
       refX="0"
       refY="0"
       orient="auto"
       inkscape:stockid="Arrow1Lend">
      <path
         transform="matrix(-0.8,0,0,-0.8,-10,0)"
         style="fill:#000000;fill-opacity:1;fill-rule:evenodd;stroke:#000000;stroke-width:1.00000003pt;stroke-opacity:1"
         d="M 0,0 5,-5 -12.5,0 5,5 Z"
         id="path9433-4"
         inkscape:connector-curvature="0" />
    </marker>
    <marker
       inkscape:stockid="Arrow1Lend"
       orient="auto"
       refY="0"
       refX="0"
       id="marker6037-6"
       style="overflow:visible"
       inkscape:isstock="true"
       inkscape:collect="always">
      <path
         id="path6035-4"
         d="M 0,0 5,-5 -12.5,0 5,5 Z"
         style="fill:#ff0000;fill-opacity:1;fill-rule:evenodd;stroke:#ff0000;stroke-width:1.00000003pt;stroke-opacity:1"
         transform="matrix(-0.8,0,0,-0.8,-10,0)"
         inkscape:connector-curvature="0" />
    </marker>
    <marker
       inkscape:isstock="true"
       style="overflow:visible"
       id="marker6061-3"
       refX="0"
       refY="0"
       orient="auto"
       inkscape:stockid="Arrow1Lend">
      <path
         transform="matrix(-0.8,0,0,-0.8,-10,0)"
         style="fill:#ff0000;fill-opacity:1;fill-rule:evenodd;stroke:#ff0000;stroke-width:1.00000003pt;stroke-opacity:1"
         d="M 0,0 5,-5 -12.5,0 5,5 Z"
         id="path6059-3"
         inkscape:connector-curvature="0" />
    </marker>
    <marker
       inkscape:stockid="Arrow1Lend"
       orient="auto"
       refY="0"
       refX="0"
       id="marker6037-6-6"
       style="overflow:visible"
       inkscape:isstock="true"
       inkscape:collect="always">
      <path
         id="path6035-4-0"
         d="M 0,0 5,-5 -12.5,0 5,5 Z"
         style="fill:#ff0000;fill-opacity:1;fill-rule:evenodd;stroke:#ff0000;stroke-width:1.00000003pt;stroke-opacity:1"
         transform="matrix(-0.8,0,0,-0.8,-10,0)"
         inkscape:connector-curvature="0" />
    </marker>
    <marker
       inkscape:stockid="Arrow1Lend"
       orient="auto"
       refY="0"
       refX="0"
       id="marker6037-6-6-9"
       style="overflow:visible"
       inkscape:isstock="true"
       inkscape:collect="always">
      <path
         id="path6035-4-0-7"
         d="M 0,0 5,-5 -12.5,0 5,5 Z"
         style="fill:#ff0000;fill-opacity:1;fill-rule:evenodd;stroke:#ff0000;stroke-width:1.00000003pt;stroke-opacity:1"
         transform="matrix(-0.8,0,0,-0.8,-10,0)"
         inkscape:connector-curvature="0" />
    </marker>
  </defs>
  <metadata
     id="metadata5">
    <rdf:RDF>
      <cc:Work
         rdf:about="">
        <dc:format>image/svg+xml</dc:format>
        <dc:type
           rdf:resource="http://purl.org/dc/dcmitype/StillImage" />
        <dc:title />
      </cc:Work>
    </rdf:RDF>
  </metadata>
  <g
     inkscape:label="Layer 1"
     inkscape:groupmode="layer"
     id="layer1"
     transform="translate(0,-87)" />
  <g
     transform="translate(4.9136905,1.670966)"
     id="g4932"
     inkscape:export-xdpi="96"
     inkscape:export-ydpi="96"
     style="stroke-width:0.5291667;stroke-miterlimit:4;stroke-dasharray:none">
    <text
       xml:space="preserve"
       style="font-style:normal;font-weight:normal;font-size:9.72712326px;line-height:1.25;font-family:sans-serif;letter-spacing:0px;word-spacing:0px;fill:#000000;fill-opacity:1;stroke:none;stroke-width:0.52916664;stroke-miterlimit:4;stroke-dasharray:none"
       x="44.182159"
       y="63.943878"
       id="text4858"
       transform="scale(0.98129486,1.0190617)"><tspan
         sodipodi:role="line"
         id="tspan4856"
         x="44.182159"
         y="63.943878"
         style="stroke-width:0.52916664;stroke-miterlimit:4;stroke-dasharray:none">GRU</tspan><tspan
         sodipodi:role="line"
         x="44.182159"
         y="76.102783"
         style="stroke-width:0.52916664;stroke-miterlimit:4;stroke-dasharray:none"
         id="tspan4860">RNN</tspan></text>
    <path
       style="fill:none;stroke:#000000;stroke-width:0.5291667;stroke-miterlimit:4;stroke-dasharray:none;stroke-opacity:1"
       d="m 41.641395,32.096147 24.15959,10.640476 v 49.217824 l -24.15959,11.305513 z"
       id="rect4848"
       inkscape:connector-curvature="0"
       sodipodi:nodetypes="ccccc" />
  </g>
  <g
     transform="translate(4.9136905,1.9422829)"
     id="g4941"
     inkscape:export-xdpi="96"
     inkscape:export-ydpi="96"
     style="stroke-width:0.5291667;stroke-miterlimit:4;stroke-dasharray:none">
    <text
       xml:space="preserve"
       style="font-style:normal;font-weight:normal;font-size:9.72712326px;line-height:1.25;font-family:sans-serif;letter-spacing:0px;word-spacing:0px;fill:#000000;fill-opacity:1;stroke:none;stroke-width:0.52916664;stroke-miterlimit:4;stroke-dasharray:none"
       x="148.76997"
       y="63.684681"
       id="text4858-8"
       transform="scale(0.98129487,1.0190617)"><tspan
         sodipodi:role="line"
         id="tspan4856-5"
         x="148.76997"
         y="63.684681"
         style="stroke-width:0.52916664;stroke-miterlimit:4;stroke-dasharray:none">GRU</tspan><tspan
         sodipodi:role="line"
         x="148.76997"
         y="75.843582"
         style="stroke-width:0.52916664;stroke-miterlimit:4;stroke-dasharray:none"
         id="tspan4860-9">RNN</tspan></text>
    <path
       style="fill:none;stroke:#000000;stroke-width:0.5291667;stroke-miterlimit:4;stroke-dasharray:none;stroke-opacity:1"
       d="M 168.43247,102.99893 144.27288,92.35846 V 43.140641 l 24.15959,-11.305508 z"
       id="rect4848-1"
       inkscape:connector-curvature="0"
       sodipodi:nodetypes="ccccc" />
  </g>
  <g
     id="g4966"
     transform="translate(22.286209,-43.767979)"
     inkscape:export-xdpi="96"
     inkscape:export-ydpi="96">
    <g
       word-spacing="normal"
       letter-spacing="normal"
       font-size-adjust="none"
       font-stretch="normal"
       font-weight="normal"
       font-variant="normal"
       font-style="normal"
       stroke-miterlimit="10.433"
       xml:space="preserve"
       transform="matrix(0.3,0,0,-0.3,-52.5,222.75)"
       id="content"
       style="font-style:normal;font-variant:normal;font-weight:normal;font-stretch:normal;letter-spacing:normal;word-spacing:normal;text-anchor:start;fill:none;fill-opacity:1;fill-rule:evenodd;stroke:#000000;stroke-linecap:butt;stroke-linejoin:miter;stroke-miterlimit:10.43299961;stroke-dasharray:none;stroke-dashoffset:0;stroke-opacity:1" />  </g>
  <g
     id="g5457"
     inkscape:export-xdpi="96"
     inkscape:export-ydpi="96"
     style="stroke-width:0.5291667;stroke-miterlimit:4;stroke-dasharray:none"
     transform="translate(4.9136905,2.202381)">
    <rect
       style="fill:none;stroke:#000000;stroke-width:0.5291667;stroke-miterlimit:4;stroke-dasharray:none;stroke-opacity:1"
       id="rect4943"
       width="13.096207"
       height="46.504898"
       x="98.364418"
       y="43.895748" />
    <path
       style="fill:none;stroke:#000000;stroke-width:0.52916676;stroke-linecap:butt;stroke-linejoin:miter;stroke-miterlimit:4;stroke-dasharray:1.05833346, 0.52916673;stroke-dashoffset:0;stroke-opacity:1"
       d="m 94.35537,58.061035 21.1143,-0.267272"
       id="path4945"
       inkscape:connector-curvature="0" />
    <path
       style="font-style:normal;font-variant:normal;font-weight:normal;font-stretch:normal;letter-spacing:normal;word-spacing:normal;text-anchor:start;fill:#000000;fill-opacity:1;fill-rule:evenodd;stroke:#000000;stroke-width:1.76388884;stroke-linecap:butt;stroke-linejoin:miter;stroke-miterlimit:4;stroke-dasharray:none;stroke-dashoffset:0;stroke-opacity:1"
       inkscape:connector-curvature="0"
       d="m 466.04,420.84 -0.18,0.03 -0.19,0.04 -0.19,0.04 -0.19,0.04 -0.2,0.04 -0.21,0.04 -0.42,0.1 -0.42,0.11 -0.21,0.06 -0.21,0.07 -0.21,0.07 -0.21,0.07 -0.2,0.08 -0.2,0.09 -0.19,0.09 -0.18,0.1 -0.18,0.11 -0.17,0.11 -0.16,0.11 -0.16,0.13 -0.14,0.13 -0.13,0.14 -0.12,0.15 -0.1,0.16 -0.09,0.17 -0.04,0.08 -0.04,0.09 -0.03,0.09 -0.03,0.1 -0.03,0.09 -0.02,0.1 -0.01,0.1 -0.01,0.11 -0.01,0.1 v 0.11 c 0,3.08 4.62,3.08 5.58,3.08 3.73,0 5.62,-1.44 5.87,-4.17 0.05,-0.75 0.09,-1 1.14,-1 1.2,0 1.2,0.25 1.2,1.39 v 3.98 c 0,0.95 0,1.39 -0.9,1.39 -0.19,0 -0.3,0 -2.24,-0.94 -1.29,0.64 -3.04,0.94 -5.03,0.94 -1.5,0 -9.17,0 -9.17,-6.51 0,-2 1,-3.35 2,-4.19 1.98,-1.75 3.88,-2.05 7.72,-2.74 1.8,-0.31 5.53,-0.95 5.53,-3.89 0,-3.73 -4.58,-3.73 -5.69,-3.73 -5.28,0 -6.58,3.62 -7.17,5.78 -0.25,0.69 -0.5,0.69 -1.19,0.69 -1.2,0 -1.2,-0.3 -1.2,-1.44 v -5.44 c 0,-0.93 0,-1.39 0.91,-1.39 0.34,0 0.43,0 1.48,0.75 0.05,0 1.16,0.75 1.3,0.85 2.29,-1.6 4.89,-1.6 5.87,-1.6 1.55,0 9.22,0 9.22,7.27 0,2.15 -1,3.89 -2.73,5.28 -1.94,1.45 -3.55,1.75 -7.42,2.39 z"
       id="path4963"
       transform="matrix(0.30000001,0,0,-0.30000001,-35.12748,176.77964)" />
    <g
       id="g5010"
       transform="translate(16.901519,-21.648832)"
       style="stroke-width:0.5291667;stroke-miterlimit:4;stroke-dasharray:none">
      <g
         word-spacing="normal"
         letter-spacing="normal"
         font-size-adjust="none"
         font-stretch="normal"
         font-weight="normal"
         font-variant="normal"
         font-style="normal"
         stroke-miterlimit="10.433"
         xml:space="preserve"
         transform="matrix(0.3,0,0,-0.3,-52.5,222.75)"
         id="g5008"
         style="font-style:normal;font-variant:normal;font-weight:normal;font-stretch:normal;letter-spacing:normal;word-spacing:normal;text-anchor:start;fill:none;fill-opacity:1;fill-rule:evenodd;stroke:#000000;stroke-width:1.76388884;stroke-linecap:butt;stroke-linejoin:miter;stroke-miterlimit:4;stroke-dasharray:none;stroke-dashoffset:0;stroke-opacity:1"><path
           id="path5006"
           d="m 473.46,426.48 -0.09,-0.08 -0.07,-0.07 -0.08,-0.08 -0.07,-0.08 -0.06,-0.08 -0.06,-0.08 -0.06,-0.08 -0.05,-0.08 -0.05,-0.08 -0.05,-0.08 -0.04,-0.09 -0.04,-0.08 -0.03,-0.08 -0.04,-0.08 -0.03,-0.08 -0.02,-0.08 -0.03,-0.07 -0.02,-0.08 -0.02,-0.08 -0.02,-0.07 -0.01,-0.07 -0.01,-0.07 -0.01,-0.07 -0.01,-0.07 -0.01,-0.06 -0.01,-0.06 v -0.06 l -0.01,-0.06 v -0.05 -0.05 -0.05 -0.05 c 0,-2.18 1.75,-3.14 3.09,-3.14 1.55,0 3.14,1.05 3.14,3.14 0,4.28 -5.78,4.58 -8.67,4.58 -8.92,0 -12.61,-5.72 -12.61,-11.5 0,-6.62 4.69,-11.36 12.36,-11.36 8.06,0 9.56,5.78 9.56,6.13 0,0.7 -0.7,0.7 -1.19,0.7 -0.9,0 -0.95,-0.11 -1.2,-0.75 -1.3,-3.14 -3.69,-4.09 -6.22,-4.09 -6.93,0 -6.93,7.32 -6.93,9.62 0,2.78 0,9.27 6.43,9.27 1.74,0 2.58,-0.16 3.24,-0.3 z"
           inkscape:connector-curvature="0"
           style="fill:#000000;stroke-width:1.76388884;stroke-miterlimit:4;stroke-dasharray:none" /></g>    </g>
  </g>
  <path
     style="fill:#ff0000;stroke:#ff0000;stroke-width:0.5291667;stroke-linecap:butt;stroke-linejoin:miter;stroke-miterlimit:4;stroke-dasharray:none;stroke-opacity:1;marker-end:url(#marker6037)"
     d="m 98.733137,25.8409 4.848893,17.385691"
     id="path5927"
     inkscape:connector-curvature="0"
     inkscape:export-xdpi="96"
     inkscape:export-ydpi="96" />
  <text
     xml:space="preserve"
     style="font-style:normal;font-variant:normal;font-weight:normal;font-stretch:normal;font-size:8.37787724px;line-height:1.25;font-family:sans-serif;-inkscape-font-specification:'sans-serif, Normal';font-variant-ligatures:normal;font-variant-caps:normal;font-variant-numeric:normal;font-feature-settings:normal;text-align:center;letter-spacing:0px;word-spacing:0px;writing-mode:lr-tb;text-anchor:middle;fill:#000000;fill-opacity:1;stroke:none;stroke-width:0.39271295"
     x="25.414551"
     y="59.501263"
     id="text6363-1"
     inkscape:export-xdpi="96"
     inkscape:export-ydpi="96"
     transform="scale(0.97560586,1.0250041)"><tspan
       sodipodi:role="line"
       id="tspan100"
       x="26.748138"
       y="59.501263"
       style="stroke-width:0.39271295">the </tspan><tspan
       sodipodi:role="line"
       id="tspan102"
       x="25.414551"
       y="69.97361"
       style="stroke-width:0.39271295">product</tspan><tspan
       sodipodi:role="line"
       id="tspan104"
       x="25.414551"
       y="80.445961"
       style="stroke-width:0.39271295">is great</tspan></text>
  <path
     style="fill:none;stroke:#000000;stroke-width:0.5291667;stroke-linecap:butt;stroke-linejoin:miter;stroke-miterlimit:4;stroke-dasharray:none;stroke-opacity:1;marker-end:url(#marker9435)"
     d="m 118.49563,69.354167 h 29.10426"
     id="path9413-1"
     inkscape:connector-curvature="0"
     inkscape:export-xdpi="96"
     inkscape:export-ydpi="96" />
  <text
     xml:space="preserve"
     style="font-style:normal;font-variant:normal;font-weight:normal;font-stretch:normal;font-size:7.05555534px;line-height:1.25;font-family:sans-serif;-inkscape-font-specification:'sans-serif, Normal';font-variant-ligatures:normal;font-variant-caps:normal;font-variant-numeric:normal;font-feature-settings:normal;text-align:start;letter-spacing:0px;word-spacing:0px;writing-mode:lr-tb;text-anchor:start;fill:#000000;fill-opacity:1;stroke:none;stroke-width:0.26458332"
     x="222.62798"
     y="59.187504"
     id="text82"
     inkscape:export-xdpi="96"
     inkscape:export-ydpi="96"><tspan
       sodipodi:role="line"
       id="tspan80"
       x="222.62798"
       y="65.430016"
       style="stroke-width:0.26458332" /></text>
  <flowRoot
     xml:space="preserve"
     id="flowRoot92"
     style="font-style:normal;font-variant:normal;font-weight:normal;font-stretch:normal;font-size:48px;line-height:1.25;font-family:sans-serif;-inkscape-font-specification:'sans-serif, Normal';font-variant-ligatures:normal;font-variant-caps:normal;font-variant-numeric:normal;font-feature-settings:normal;text-align:start;letter-spacing:0px;word-spacing:0px;writing-mode:lr-tb;text-anchor:start;fill:#ff0000;fill-opacity:1;stroke:none"
     transform="matrix(0.4276881,0,0,1.407978,-151.76994,-190.70927)"
     inkscape:export-xdpi="96"
     inkscape:export-ydpi="96"><flowRegion
       id="flowRegion94"
       style="font-style:normal;font-variant:normal;font-weight:normal;font-stretch:normal;font-size:48px;font-family:sans-serif;-inkscape-font-specification:'sans-serif, Normal';font-variant-ligatures:normal;font-variant-caps:normal;font-variant-numeric:normal;font-feature-settings:normal;text-align:start;writing-mode:lr-tb;text-anchor:start;fill:#ff0000"><rect
         id="rect96"
         width="44.285713"
         height="280"
         x="845.71429"
         y="156.55795"
         style="font-style:normal;font-variant:normal;font-weight:normal;font-stretch:normal;font-size:48px;font-family:sans-serif;-inkscape-font-specification:'sans-serif, Normal';font-variant-ligatures:normal;font-variant-caps:normal;font-variant-numeric:normal;font-feature-settings:normal;text-align:start;writing-mode:lr-tb;text-anchor:start;fill:#ff0000" /></flowRegion><flowPara
       id="flowPara98">}</flowPara></flowRoot>  <path
     style="fill:none;stroke:#000000;stroke-width:0.52916676;stroke-linecap:butt;stroke-linejoin:miter;stroke-miterlimit:4;stroke-dasharray:none;stroke-opacity:1;marker-end:url(#marker9435-7)"
     d="m 72.24672,69.354167 h 29.10426"
     id="path9413-1-0"
     inkscape:connector-curvature="0"
     inkscape:export-xdpi="96"
     inkscape:export-ydpi="96" />
  <text
     xml:space="preserve"
     style="font-style:normal;font-variant:normal;font-weight:normal;font-stretch:normal;font-size:8.37787724px;line-height:1.25;font-family:sans-serif;-inkscape-font-specification:'sans-serif, Normal';font-variant-ligatures:normal;font-variant-caps:normal;font-variant-numeric:normal;font-feature-settings:normal;text-align:center;letter-spacing:0px;word-spacing:0px;writing-mode:lr-tb;text-anchor:middle;fill:#000000;fill-opacity:1;stroke:none;stroke-width:0.39271295"
     x="196.92224"
     y="59.501263"
     id="text6363-1-3"
     inkscape:export-xdpi="96"
     inkscape:export-ydpi="96"
     transform="scale(0.97560586,1.0250041)"><tspan
       sodipodi:role="line"
       id="tspan100-6"
       x="198.25583"
       y="59.501263"
       style="stroke-width:0.39271295">the </tspan><tspan
       sodipodi:role="line"
       id="tspan102-7"
       x="196.92224"
       y="69.97361"
       style="stroke-width:0.39271295">product</tspan><tspan
       sodipodi:role="line"
       id="tspan104-5"
       x="196.92224"
       y="80.445953"
       style="stroke-width:0.39271295">is great</tspan></text>
  <g
     transform="translate(139.09524,-27.214286)"
     id="g852"
     style="fill:#ff0000">
    <g
       style="font-style:normal;font-variant:normal;font-weight:normal;font-stretch:normal;letter-spacing:normal;word-spacing:normal;text-anchor:start;fill:#ff0000;fill-opacity:1;fill-rule:evenodd;stroke:#000000;stroke-linecap:butt;stroke-linejoin:miter;stroke-miterlimit:10.43299961;stroke-dasharray:none;stroke-dashoffset:0;stroke-opacity:1"
       id="g850"
       transform="matrix(0.3,0,0,-0.3,-52.5,222.75)"
       xml:space="preserve"
       stroke-miterlimit="10.433"
       font-style="normal"
       font-variant="normal"
       font-weight="normal"
       font-stretch="normal"
       font-size-adjust="none"
       letter-spacing="normal"
       word-spacing="normal"><path
         style="fill:#ff0000;stroke-width:0"
         inkscape:connector-curvature="0"
         d="m 482.47,436.59 0.04,0.15 0.04,0.14 0.03,0.14 0.04,0.13 0.03,0.12 0.04,0.12 0.04,0.11 0.04,0.11 0.04,0.1 0.04,0.09 0.05,0.09 0.05,0.08 0.06,0.08 0.06,0.07 0.07,0.07 0.08,0.06 0.08,0.06 0.09,0.05 0.09,0.05 0.11,0.04 0.11,0.04 0.13,0.04 0.13,0.03 0.07,0.01 0.08,0.02 0.07,0.01 0.08,0.01 0.08,0.01 0.09,0.01 0.09,0.01 0.09,0.01 0.09,0.01 h 0.1 l 0.1,0.01 h 0.11 l 0.1,0.01 h 0.11 0.12 0.12 0.12 0.13 c 0.79,0 1.34,0 1.34,0.96 0,0.43 -0.3,0.59 -0.69,0.59 -1.25,0 -4.28,-0.16 -5.53,-0.16 -1.64,0 -5.69,0.16 -7.33,0.16 -0.45,0 -1.04,0 -1.04,-1 0,-0.55 0.4,-0.55 1.7,-0.55 1.14,0 1.64,0 2.88,-0.09 1.2,-0.16 1.54,-0.31 1.54,-1 0,-0.3 -0.09,-0.66 -0.19,-1.05 l -5.73,-22.87 c -1.2,-4.83 -4.58,-7.47 -7.17,-7.47 -1.3,0 -3.94,0.5 -4.74,3.09 0.14,-0.04 0.5,-0.04 0.6,-0.04 1.94,0 3.23,1.68 3.23,3.18 0,1.6 -1.34,2.08 -2.19,2.08 -0.89,0 -3.34,-0.59 -3.34,-3.98 0,-3.08 2.64,-5.42 6.58,-5.42 4.59,0 9.76,3.28 11.01,8.21 z"
         id="path842" /><path
         style="fill:#ff0000;stroke-width:0"
         inkscape:connector-curvature="0"
         d="m 490.06,406.7 v 0.28 l 0.02,0.28 0.02,0.28 0.02,0.28 0.04,0.28 0.05,0.29 0.05,0.28 0.06,0.28 0.07,0.27 0.09,0.28 0.08,0.27 0.1,0.26 0.11,0.26 0.12,0.25 0.13,0.25 0.13,0.24 0.15,0.23 0.15,0.22 0.17,0.21 0.18,0.19 0.18,0.19 0.2,0.18 0.21,0.16 0.21,0.15 0.23,0.13 0.24,0.12 0.25,0.1 0.26,0.09 0.27,0.06 0.28,0.05 0.3,0.03 0.3,0.01 c -0.31,-0.25 -0.59,-0.7 -0.59,-1.25 0,-1.15 0.9,-1.61 1.56,-1.61 0.84,0 1.61,0.57 1.61,1.61 0,1.19 -1.13,2.22 -2.77,2.22 -1.73,0 -3.65,-1.08 -4.7,-3.72 h -0.03 v 3.72 l -4.99,-0.37 v -1.25 c 2.35,0 2.63,-0.25 2.63,-1.96 v -9.03 c 0,-1.5 -0.36,-1.5 -2.63,-1.5 v -1.25 c 0.18,0 2.55,0.14 3.97,0.14 1.5,0 3.05,-0.08 4.53,-0.14 v 1.25 h -0.68 c -2.58,0 -2.58,0.39 -2.58,1.58 z"
         id="path844" /><path
         style="fill:#ff0000;stroke-width:0"
         inkscape:connector-curvature="0"
         d="m 514.05,406.7 h 0.06 0.07 0.06 0.06 0.06 0.05 l 0.05,0.01 h 0.05 l 0.05,0.01 h 0.04 l 0.04,0.01 0.04,0.01 0.04,0.01 0.03,0.01 0.03,0.02 0.03,0.02 0.03,0.02 0.03,0.02 0.02,0.02 0.02,0.03 0.02,0.03 0.02,0.03 0.01,0.02 0.01,0.02 v 0.02 l 0.01,0.02 0.01,0.02 v 0.02 l 0.01,0.02 v 0.03 l 0.01,0.02 v 0.03 l 0.01,0.02 v 0.03 0.03 0.03 l 0.01,0.03 v 0.03 0.04 0.03 0.03 0.04 c 0,3.06 -1.72,6.83 -6.91,6.83 -4.56,0 -8.04,-3.63 -8.04,-7.92 0,-4.43 3.87,-7.97 8.5,-7.97 4.7,0 6.45,3.76 6.45,4.53 0,0.14 -0.08,0.48 -0.59,0.48 -0.46,0 -0.53,-0.22 -0.63,-0.56 -1.09,-2.81 -3.73,-3.34 -4.98,-3.34 -1.64,0 -3.21,0.73 -4.25,2.06 -1.3,1.62 -1.33,3.75 -1.33,5.11 l 0.03,0.91 c 0.39,4.92 3.52,5.71 4.84,5.71 4.29,0 4.43,-4.84 4.47,-5.71 h -9.31 l -0.03,-0.91 z"
         id="path846" /><path
         style="fill:#ff0000;stroke-width:0"
         inkscape:connector-curvature="0"
         d="m 530.02,412.67 -0.05,-0.03 -0.06,-0.03 -0.06,-0.03 -0.05,-0.03 -0.05,-0.03 -0.05,-0.04 -0.05,-0.04 -0.04,-0.03 -0.05,-0.04 -0.04,-0.04 -0.04,-0.05 -0.04,-0.04 -0.04,-0.04 -0.03,-0.05 -0.03,-0.05 -0.04,-0.05 -0.03,-0.04 -0.02,-0.06 -0.03,-0.05 -0.02,-0.05 -0.03,-0.05 -0.02,-0.06 -0.01,-0.06 -0.02,-0.05 -0.02,-0.06 -0.01,-0.06 -0.01,-0.06 -0.01,-0.06 -0.01,-0.06 v -0.07 -0.06 l -0.01,-0.06 c 0,-0.96 0.66,-1.64 1.65,-1.64 0.93,0 1.67,0.59 1.67,1.7 0,3.11 -4.85,3.11 -5.83,3.11 -5.22,0 -8.45,-4.02 -8.45,-8.02 0,-4.39 3.71,-7.87 8.28,-7.87 5.2,0 6.42,4.11 6.42,4.53 0,0.41 -0.45,0.41 -0.59,0.41 -0.46,0 -0.49,-0.1 -0.68,-0.6 -0.76,-2.15 -2.61,-3.23 -4.73,-3.23 -2.41,0 -5.53,1.78 -5.53,6.79 0,4.43 2.15,6.86 5.39,6.86 0.45,0 2.12,0 3.37,-0.51 z"
         id="path848" /></g>  </g>
  <path
     style="fill:#ff0000;stroke:#ff0000;stroke-width:0.52916676;stroke-linecap:butt;stroke-linejoin:miter;stroke-miterlimit:4;stroke-dasharray:none;stroke-opacity:1;marker-end:url(#marker6037-6)"
     d="M 98.453774,112.80306 103.30266,95.417373"
     id="path5927-3"
     inkscape:connector-curvature="0"
     inkscape:export-xdpi="96"
     inkscape:export-ydpi="96" />
  <path
     style="fill:#ff0000;stroke:#ff0000;stroke-width:0.52916682;stroke-linecap:butt;stroke-linejoin:miter;stroke-miterlimit:4;stroke-dasharray:none;stroke-opacity:1;marker-end:url(#marker6037-6-6)"
     d="M 120.88638,112.80306 116.03749,95.417375"
     id="path5927-3-4"
     inkscape:connector-curvature="0"
     inkscape:export-xdpi="96"
     inkscape:export-ydpi="96" />
  <path
     style="fill:#ff0000;stroke:#ff0000;stroke-width:0.52916682;stroke-linecap:butt;stroke-linejoin:miter;stroke-miterlimit:4;stroke-dasharray:none;stroke-opacity:1;marker-end:url(#marker6037-6-6-9)"
     d="m 120.88638,25.8409 -4.84889,17.38569"
     id="path5927-3-4-7"
     inkscape:connector-curvature="0"
     inkscape:export-xdpi="96"
     inkscape:export-ydpi="96" />
  <g
     transform="translate(-8.8198938,17.639789)"
     id="g229"
     style="fill:#ff0000">
    <g
       style="font-style:normal;font-variant:normal;font-weight:normal;font-stretch:normal;letter-spacing:normal;word-spacing:normal;text-anchor:start;fill:#ff0000;fill-opacity:1;fill-rule:evenodd;stroke:#000000;stroke-linecap:butt;stroke-linejoin:miter;stroke-miterlimit:10.43299961;stroke-dasharray:none;stroke-dashoffset:0;stroke-opacity:1"
       id="g227"
       transform="matrix(0.3,0,0,-0.3,-52.5,222.75)"
       xml:space="preserve"
       stroke-miterlimit="10.433"
       font-style="normal"
       font-variant="normal"
       font-weight="normal"
       font-stretch="normal"
       font-size-adjust="none"
       letter-spacing="normal"
       word-spacing="normal"><path
         style="fill:#ff0000;stroke-width:0"
         inkscape:connector-curvature="0"
         d="m 482.47,436.59 0.04,0.15 0.04,0.14 0.03,0.14 0.04,0.13 0.03,0.12 0.04,0.12 0.04,0.11 0.04,0.11 0.04,0.1 0.04,0.09 0.05,0.09 0.05,0.08 0.06,0.08 0.06,0.07 0.07,0.07 0.08,0.06 0.08,0.06 0.09,0.05 0.09,0.05 0.11,0.04 0.11,0.04 0.13,0.04 0.13,0.03 0.07,0.01 0.08,0.02 0.07,0.01 0.08,0.01 0.08,0.01 0.09,0.01 0.09,0.01 0.09,0.01 0.09,0.01 h 0.1 l 0.1,0.01 h 0.11 l 0.1,0.01 h 0.11 0.12 0.12 0.12 0.13 c 0.79,0 1.34,0 1.34,0.96 0,0.43 -0.3,0.59 -0.69,0.59 -1.25,0 -4.28,-0.16 -5.53,-0.16 -1.64,0 -5.69,0.16 -7.33,0.16 -0.45,0 -1.04,0 -1.04,-1 0,-0.55 0.4,-0.55 1.7,-0.55 1.14,0 1.64,0 2.88,-0.09 1.2,-0.16 1.54,-0.31 1.54,-1 0,-0.3 -0.09,-0.66 -0.19,-1.05 l -5.73,-22.87 c -1.2,-4.83 -4.58,-7.47 -7.17,-7.47 -1.3,0 -3.94,0.5 -4.74,3.09 0.14,-0.04 0.5,-0.04 0.6,-0.04 1.94,0 3.23,1.68 3.23,3.18 0,1.6 -1.34,2.08 -2.19,2.08 -0.89,0 -3.34,-0.59 -3.34,-3.98 0,-3.08 2.64,-5.42 6.58,-5.42 4.59,0 9.76,3.28 11.01,8.21 z"
         id="path217" /><path
         style="fill:#ff0000;stroke-width:0"
         inkscape:connector-curvature="0"
         d="m 501.47,438.11 -0.06,-0.03 -0.05,-0.03 -0.06,-0.03 -0.05,-0.03 -0.05,-0.04 -0.05,-0.03 -0.05,-0.04 -0.05,-0.04 -0.04,-0.04 -0.04,-0.04 -0.04,-0.04 -0.04,-0.04 -0.04,-0.05 -0.03,-0.04 -0.04,-0.05 -0.03,-0.05 -0.03,-0.05 -0.03,-0.05 -0.02,-0.05 -0.03,-0.05 -0.02,-0.06 -0.02,-0.05 -0.02,-0.06 -0.02,-0.06 -0.01,-0.05 -0.01,-0.06 -0.02,-0.06 v -0.06 l -0.01,-0.07 -0.01,-0.06 v -0.06 -0.07 c 0,-0.95 0.66,-1.64 1.64,-1.64 0.94,0 1.67,0.6 1.67,1.71 0,3.11 -4.84,3.11 -5.83,3.11 -5.21,0 -8.45,-4.02 -8.45,-8.02 0,-4.39 3.72,-7.87 8.28,-7.87 5.21,0 6.42,4.1 6.42,4.53 0,0.4 -0.45,0.4 -0.59,0.4 -0.45,0 -0.48,-0.09 -0.67,-0.59 -0.77,-2.16 -2.61,-3.24 -4.74,-3.24 -2.4,0 -5.53,1.79 -5.53,6.8 0,4.42 2.16,6.86 5.39,6.86 0.46,0 2.13,0 3.38,-0.51 z"
         id="path219" /><path
         style="fill:#ff0000;stroke-width:0"
         inkscape:connector-curvature="0"
         d="m 511.76,402.6 v 0.28 l -0.02,0.28 -0.02,0.26 -0.03,0.26 -0.04,0.25 -0.05,0.24 -0.06,0.23 -0.07,0.23 -0.08,0.22 -0.09,0.21 -0.1,0.2 -0.11,0.19 -0.12,0.19 -0.13,0.17 -0.14,0.17 -0.15,0.16 -0.17,0.15 -0.17,0.14 -0.18,0.13 -0.2,0.12 -0.21,0.11 -0.22,0.11 -0.23,0.09 -0.24,0.08 -0.26,0.08 -0.26,0.07 -0.28,0.05 -0.29,0.05 -0.31,0.03 -0.32,0.03 -0.32,0.01 -0.35,0.01 c -2.76,0 -4.64,-1.49 -5.58,-3.24 -0.7,2.47 -2.57,3.24 -5.12,3.24 -2.86,0 -4.7,-1.56 -5.69,-3.38 h -0.03 v 3.38 L 485,407.02 v -1.25 c 2.34,0 2.62,-0.25 2.62,-1.95 v -9.03 c 0,-1.5 -0.36,-1.5 -2.62,-1.5 v -1.25 c 0.07,0 2.51,0.14 3.98,0.14 1.28,0 3.69,-0.11 4,-0.14 v 1.25 c -2.27,0 -2.61,0 -2.61,1.5 v 6.28 c 0,3.66 2.89,5.36 5.19,5.36 2.44,0 2.75,-1.92 2.75,-3.69 v -7.95 c 0,-1.5 -0.35,-1.5 -2.61,-1.5 v -1.25 c 0.08,0 2.51,0.14 3.97,0.14 1.29,0 3.7,-0.11 4.01,-0.14 v 1.25 c -2.26,0 -2.62,0 -2.62,1.5 v 6.28 c 0,3.66 2.9,5.36 5.2,5.36 2.44,0 2.75,-1.92 2.75,-3.69 v -7.95 c 0,-1.5 -0.34,-1.5 -2.61,-1.5 v -1.25 c 0.06,0 2.5,0.14 3.97,0.14 1.28,0 3.69,-0.11 4,-0.14 v 1.25 c -2.27,0 -2.61,0 -2.61,1.5 z"
         id="path221" /><path
         style="fill:#ff0000;stroke-width:0"
         inkscape:connector-curvature="0"
         d="m 527.38,407.02 v -1.25 c 2.32,0 2.6,-0.25 2.6,-1.95 v -5.97 c 0,-3.06 -1.98,-5.19 -4.62,-5.19 -3.17,0 -3.31,1.5 -3.31,3.29 v 11.45 l -5.38,-0.38 v -1.25 c 2.63,0 2.63,-0.11 2.63,-3.22 v -5.21 c 0,-2.41 0,-5.64 5.81,-5.64 0.77,0 3.31,0 4.98,2.92 h 0.03 v -2.92 l 5.24,0.34 v 1.25 c -2.34,0 -2.63,0.25 -2.63,1.95 v 12.16 z"
         id="path223" /><path
         style="fill:#ff0000;stroke-width:0"
         inkscape:connector-curvature="0"
         d="m 543.93,416.23 -5.22,-0.39 v -1.25 c 2.32,0 2.61,-0.25 2.61,-1.96 v -17.84 c 0,-1.5 -0.35,-1.5 -2.61,-1.5 v -1.25 c 0.06,0 2.5,0.14 3.9,0.14 1.32,0 2.61,-0.03 3.94,-0.14 v 1.25 c -2.27,0 -2.62,0 -2.62,1.5 z"
         id="path225" /></g>  </g>
  <g
     id="g472"
     transform="translate(-8.8198938,-82.051745)"
     style="fill:#ff0000">
    <g
       word-spacing="normal"
       letter-spacing="normal"
       font-size-adjust="none"
       font-stretch="normal"
       font-weight="normal"
       font-variant="normal"
       font-style="normal"
       stroke-miterlimit="10.433"
       xml:space="preserve"
       transform="matrix(0.3,0,0,-0.3,-52.5,222.75)"
       id="g470"
       style="font-style:normal;font-variant:normal;font-weight:normal;font-stretch:normal;letter-spacing:normal;word-spacing:normal;text-anchor:start;fill:#ff0000;fill-opacity:1;fill-rule:evenodd;stroke:#000000;stroke-linecap:butt;stroke-linejoin:miter;stroke-miterlimit:10.43299961;stroke-dasharray:none;stroke-dashoffset:0;stroke-opacity:1"><path
         id="path460"
         d="m 482.47,436.59 0.04,0.15 0.04,0.14 0.03,0.14 0.04,0.13 0.03,0.12 0.04,0.12 0.04,0.11 0.04,0.11 0.04,0.1 0.04,0.09 0.05,0.09 0.05,0.08 0.06,0.08 0.06,0.07 0.07,0.07 0.08,0.06 0.08,0.06 0.09,0.05 0.09,0.05 0.11,0.04 0.11,0.04 0.13,0.04 0.13,0.03 0.07,0.01 0.08,0.02 0.07,0.01 0.08,0.01 0.08,0.01 0.09,0.01 0.09,0.01 0.09,0.01 0.09,0.01 h 0.1 l 0.1,0.01 h 0.11 l 0.1,0.01 h 0.11 0.12 0.12 0.12 0.13 c 0.79,0 1.34,0 1.34,0.96 0,0.43 -0.3,0.59 -0.69,0.59 -1.25,0 -4.28,-0.16 -5.53,-0.16 -1.64,0 -5.69,0.16 -7.33,0.16 -0.45,0 -1.04,0 -1.04,-1 0,-0.55 0.4,-0.55 1.7,-0.55 1.14,0 1.64,0 2.88,-0.09 1.2,-0.16 1.54,-0.31 1.54,-1 0,-0.3 -0.09,-0.66 -0.19,-1.05 l -5.73,-22.87 c -1.2,-4.83 -4.58,-7.47 -7.17,-7.47 -1.3,0 -3.94,0.5 -4.74,3.09 0.14,-0.04 0.5,-0.04 0.6,-0.04 1.94,0 3.23,1.68 3.23,3.18 0,1.6 -1.34,2.08 -2.19,2.08 -0.89,0 -3.34,-0.59 -3.34,-3.98 0,-3.08 2.64,-5.42 6.58,-5.42 4.59,0 9.76,3.28 11.01,8.21 z"
         inkscape:connector-curvature="0"
         style="fill:#ff0000;stroke-width:0" /><path
         id="path462"
         d="m 501.12,438.84 v 0.05 0.06 0.05 0.05 0.05 0.04 0.05 0.04 l -0.01,0.04 v 0.04 0.04 l -0.01,0.04 -0.01,0.03 -0.01,0.04 v 0.03 l -0.02,0.03 -0.01,0.02 -0.01,0.03 -0.02,0.02 -0.01,0.03 -0.02,0.02 -0.02,0.02 -0.02,0.01 -0.03,0.02 -0.03,0.01 -0.02,0.01 -0.04,0.01 -0.03,0.01 h -0.02 l -0.02,0.01 h -0.01 -0.02 -0.02 l -0.03,0.01 h -0.02 -0.02 c -0.17,0 -0.25,0 -0.7,-0.43 -0.06,-0.03 -0.41,-0.34 -0.63,-0.53 -1.04,0.74 -2.36,0.96 -3.65,0.96 -4.99,0 -6.18,-2.63 -6.18,-4.36 0,-1.13 0.5,-2.02 1.33,-2.72 1.33,-1.16 2.66,-1.39 4.81,-1.75 1.74,-0.31 4.57,-0.8 4.57,-3.13 0,-1.36 -0.94,-2.97 -4.28,-2.97 -3.35,0 -4.57,2.21 -5.21,4.57 -0.09,0.45 -0.14,0.59 -0.62,0.59 -0.6,0 -0.6,-0.23 -0.6,-0.94 v -4.28 c 0,-0.59 0,-0.9 0.5,-0.9 0.32,0 0.97,0.73 1.68,1.5 1.53,-1.44 3.4,-1.5 4.25,-1.5 4.53,0 6.2,2.43 6.2,4.9 0,1.33 -0.59,2.38 -1.5,3.2 -1.33,1.22 -2.94,1.5 -4.16,1.72 -2.78,0.49 -5.04,0.91 -5.04,2.75 0,1.11 0.93,2.47 4.25,2.47 4.04,0 4.22,-2.83 4.28,-3.83 0.04,-0.39 0.45,-0.39 0.59,-0.39 0.59,0 0.59,0.25 0.59,0.91 z"
         inkscape:connector-curvature="0"
         style="fill:#ff0000;stroke-width:0" /><path
         id="path464"
         d="m 511.76,402.6 v 0.28 l -0.02,0.28 -0.02,0.26 -0.03,0.26 -0.04,0.25 -0.05,0.24 -0.06,0.23 -0.07,0.23 -0.08,0.22 -0.09,0.21 -0.1,0.2 -0.11,0.19 -0.12,0.19 -0.13,0.17 -0.14,0.17 -0.15,0.16 -0.17,0.15 -0.17,0.14 -0.18,0.13 -0.2,0.12 -0.21,0.11 -0.22,0.11 -0.23,0.09 -0.24,0.08 -0.26,0.08 -0.26,0.07 -0.28,0.05 -0.29,0.05 -0.31,0.03 -0.32,0.03 -0.32,0.01 -0.35,0.01 c -2.76,0 -4.64,-1.49 -5.58,-3.24 -0.7,2.47 -2.57,3.24 -5.12,3.24 -2.86,0 -4.7,-1.56 -5.69,-3.38 h -0.03 v 3.38 L 485,407.02 v -1.25 c 2.34,0 2.62,-0.25 2.62,-1.95 v -9.03 c 0,-1.5 -0.36,-1.5 -2.62,-1.5 v -1.25 c 0.07,0 2.51,0.14 3.98,0.14 1.28,0 3.69,-0.11 4,-0.14 v 1.25 c -2.27,0 -2.61,0 -2.61,1.5 v 6.28 c 0,3.66 2.89,5.36 5.19,5.36 2.44,0 2.75,-1.92 2.75,-3.69 v -7.95 c 0,-1.5 -0.35,-1.5 -2.61,-1.5 v -1.25 c 0.08,0 2.51,0.14 3.97,0.14 1.29,0 3.7,-0.11 4.01,-0.14 v 1.25 c -2.26,0 -2.62,0 -2.62,1.5 v 6.28 c 0,3.66 2.9,5.36 5.2,5.36 2.44,0 2.75,-1.92 2.75,-3.69 v -7.95 c 0,-1.5 -0.34,-1.5 -2.61,-1.5 v -1.25 c 0.06,0 2.5,0.14 3.97,0.14 1.28,0 3.69,-0.11 4,-0.14 v 1.25 c -2.27,0 -2.61,0 -2.61,1.5 z"
         inkscape:connector-curvature="0"
         style="fill:#ff0000;stroke-width:0" /><path
         id="path466"
         d="m 527.38,407.02 v -1.25 c 2.32,0 2.6,-0.25 2.6,-1.95 v -5.97 c 0,-3.06 -1.98,-5.19 -4.62,-5.19 -3.17,0 -3.31,1.5 -3.31,3.29 v 11.45 l -5.38,-0.38 v -1.25 c 2.63,0 2.63,-0.11 2.63,-3.22 v -5.21 c 0,-2.41 0,-5.64 5.81,-5.64 0.77,0 3.31,0 4.98,2.92 h 0.03 v -2.92 l 5.24,0.34 v 1.25 c -2.34,0 -2.63,0.25 -2.63,1.95 v 12.16 z"
         inkscape:connector-curvature="0"
         style="fill:#ff0000;stroke-width:0" /><path
         id="path468"
         d="m 543.93,416.23 -5.22,-0.39 v -1.25 c 2.32,0 2.61,-0.25 2.61,-1.96 v -17.84 c 0,-1.5 -0.35,-1.5 -2.61,-1.5 v -1.25 c 0.06,0 2.5,0.14 3.9,0.14 1.32,0 2.61,-0.03 3.94,-0.14 v 1.25 c -2.27,0 -2.62,0 -2.62,1.5 z"
         inkscape:connector-curvature="0"
         style="fill:#ff0000;stroke-width:0" /></g>  </g>
  <g
     transform="translate(33.408691,17.639789)"
     id="g730"
     style="fill:#ff0000">
    <g
       style="font-style:normal;font-variant:normal;font-weight:normal;font-stretch:normal;letter-spacing:normal;word-spacing:normal;text-anchor:start;fill:#ff0000;fill-opacity:1;fill-rule:evenodd;stroke:#000000;stroke-linecap:butt;stroke-linejoin:miter;stroke-miterlimit:10.43299961;stroke-dasharray:none;stroke-dashoffset:0;stroke-opacity:1"
       id="g728"
       transform="matrix(0.3,0,0,-0.3,-52.5,222.75)"
       xml:space="preserve"
       stroke-miterlimit="10.433"
       font-style="normal"
       font-variant="normal"
       font-weight="normal"
       font-stretch="normal"
       font-size-adjust="none"
       letter-spacing="normal"
       word-spacing="normal"><path
         style="fill:#ff0000;stroke-width:0"
         inkscape:connector-curvature="0"
         d="m 482.47,436.59 0.04,0.15 0.04,0.14 0.03,0.14 0.04,0.13 0.03,0.12 0.04,0.12 0.04,0.11 0.04,0.11 0.04,0.1 0.04,0.09 0.05,0.09 0.05,0.08 0.06,0.08 0.06,0.07 0.07,0.07 0.08,0.06 0.08,0.06 0.09,0.05 0.09,0.05 0.11,0.04 0.11,0.04 0.13,0.04 0.13,0.03 0.07,0.01 0.08,0.02 0.07,0.01 0.08,0.01 0.08,0.01 0.09,0.01 0.09,0.01 0.09,0.01 0.09,0.01 h 0.1 l 0.1,0.01 h 0.11 l 0.1,0.01 h 0.11 0.12 0.12 0.12 0.13 c 0.79,0 1.34,0 1.34,0.96 0,0.43 -0.3,0.59 -0.69,0.59 -1.25,0 -4.28,-0.16 -5.53,-0.16 -1.64,0 -5.69,0.16 -7.33,0.16 -0.45,0 -1.04,0 -1.04,-1 0,-0.55 0.4,-0.55 1.7,-0.55 1.14,0 1.64,0 2.88,-0.09 1.2,-0.16 1.54,-0.31 1.54,-1 0,-0.3 -0.09,-0.66 -0.19,-1.05 l -5.73,-22.87 c -1.2,-4.83 -4.58,-7.47 -7.17,-7.47 -1.3,0 -3.94,0.5 -4.74,3.09 0.14,-0.04 0.5,-0.04 0.6,-0.04 1.94,0 3.23,1.68 3.23,3.18 0,1.6 -1.34,2.08 -2.19,2.08 -0.89,0 -3.34,-0.59 -3.34,-3.98 0,-3.08 2.64,-5.42 6.58,-5.42 4.59,0 9.76,3.28 11.01,8.21 z"
         id="path716" /><path
         style="fill:#ff0000;stroke-width:0"
         inkscape:connector-curvature="0"
         d="m 501.12,438.84 v 0.05 0.06 0.05 0.05 0.05 0.04 0.05 0.04 l -0.01,0.04 v 0.04 0.04 l -0.01,0.04 -0.01,0.03 -0.01,0.04 v 0.03 l -0.02,0.03 -0.01,0.02 -0.01,0.03 -0.02,0.02 -0.01,0.03 -0.02,0.02 -0.02,0.02 -0.02,0.01 -0.03,0.02 -0.03,0.01 -0.02,0.01 -0.04,0.01 -0.03,0.01 h -0.02 l -0.02,0.01 h -0.01 -0.02 -0.02 l -0.03,0.01 h -0.02 -0.02 c -0.17,0 -0.25,0 -0.7,-0.43 -0.06,-0.03 -0.41,-0.34 -0.63,-0.53 -1.04,0.74 -2.36,0.96 -3.65,0.96 -4.99,0 -6.18,-2.63 -6.18,-4.36 0,-1.13 0.5,-2.02 1.33,-2.72 1.33,-1.16 2.66,-1.39 4.81,-1.75 1.74,-0.31 4.57,-0.8 4.57,-3.13 0,-1.36 -0.94,-2.97 -4.28,-2.97 -3.35,0 -4.57,2.21 -5.21,4.57 -0.09,0.45 -0.14,0.59 -0.62,0.59 -0.6,0 -0.6,-0.23 -0.6,-0.94 v -4.28 c 0,-0.59 0,-0.9 0.5,-0.9 0.32,0 0.97,0.73 1.68,1.5 1.53,-1.44 3.4,-1.5 4.25,-1.5 4.53,0 6.2,2.43 6.2,4.9 0,1.33 -0.59,2.38 -1.5,3.2 -1.33,1.22 -2.94,1.5 -4.16,1.72 -2.78,0.49 -5.04,0.91 -5.04,2.75 0,1.11 0.93,2.47 4.25,2.47 4.04,0 4.22,-2.83 4.28,-3.83 0.04,-0.39 0.45,-0.39 0.59,-0.39 0.59,0 0.59,0.25 0.59,0.91 z"
         id="path718" /><path
         style="fill:#ff0000;stroke-width:0"
         inkscape:connector-curvature="0"
         d="m 495.53,415.84 v -1.25 c 2.33,0 2.61,-0.25 2.61,-1.96 v -7.22 c -1.28,1.27 -2.96,1.99 -4.88,1.99 l 0.17,-0.97 c 1.68,0 3.18,-0.77 4.14,-2.02 0.43,-0.56 0.43,-0.59 0.43,-1.26 v -7.45 c -0.91,-1.65 -2.68,-3.04 -4.94,-3.04 -1.95,0 -3.36,1.16 -4.05,2.16 -0.7,1.05 -1.11,2.45 -1.11,4.67 0,0.81 0,3.42 1.42,5.06 1.39,1.57 3.1,1.88 4.11,1.88 l -0.17,0.97 c -4.64,0 -8.53,-3.49 -8.53,-7.88 0,-4.34 3.69,-7.82 8.11,-7.82 2.86,0 4.56,1.53 5.16,2.15 v -2.15 l 5.37,0.34 v 1.25 c -2.34,0 -2.62,0.25 -2.62,1.95 v 20.99 z"
         id="path720" /><path
         style="fill:#ff0000;stroke-width:0"
         inkscape:connector-curvature="0"
         d="m 512.44,413.54 v 0.09 l -0.01,0.1 -0.01,0.09 -0.02,0.1 -0.02,0.09 -0.03,0.09 -0.03,0.09 -0.03,0.09 -0.04,0.08 -0.04,0.09 -0.05,0.08 -0.05,0.08 -0.06,0.08 -0.05,0.08 -0.07,0.07 -0.06,0.07 -0.07,0.07 -0.07,0.06 -0.08,0.07 -0.08,0.05 -0.08,0.06 -0.09,0.05 -0.08,0.04 -0.1,0.05 -0.09,0.03 -0.1,0.04 -0.09,0.03 -0.11,0.02 -0.1,0.02 -0.11,0.01 -0.1,0.01 h -0.11 c -1.05,0 -1.99,-0.82 -1.99,-1.98 0,-1.25 1.02,-2.02 1.99,-2.02 1.12,0 2.03,0.86 2.03,2.02 z"
         id="path722" /><path
         style="fill:#ff0000;stroke-width:0"
         inkscape:connector-curvature="0"
         d="m 507.14,407.02 v -1.25 c 2.19,0 2.5,-0.22 2.5,-1.92 v -9.06 c 0,-1.5 -0.34,-1.5 -2.61,-1.5 v -1.25 c 0.06,0 2.5,0.14 3.91,0.14 1.22,0 2.47,-0.03 3.68,-0.14 v 1.25 c -2.01,0 -2.37,0 -2.37,1.47 v 12.64 z"
         id="path724" /><path
         style="fill:#ff0000;stroke-width:0"
         inkscape:connector-curvature="0"
         d="m 529.56,406.68 v 0.05 0.06 0.05 0.05 0.05 0.04 l -0.01,0.05 v 0.04 0.04 l -0.01,0.04 v 0.04 l -0.01,0.04 v 0.03 l -0.01,0.03 -0.01,0.04 -0.01,0.03 -0.01,0.02 -0.02,0.03 -0.01,0.02 -0.02,0.03 -0.02,0.02 -0.02,0.02 -0.02,0.01 -0.03,0.02 -0.02,0.01 -0.03,0.01 -0.03,0.01 -0.04,0.01 h -0.01 l -0.02,0.01 h -0.02 -0.02 -0.02 l -0.02,0.01 h -0.02 -0.03 c -0.17,0 -0.25,0 -0.7,-0.43 -0.06,-0.03 -0.4,-0.34 -0.62,-0.53 -1.05,0.74 -2.36,0.96 -3.66,0.96 -4.99,0 -6.17,-2.63 -6.17,-4.36 0,-1.13 0.5,-2.02 1.33,-2.72 1.32,-1.16 2.65,-1.39 4.81,-1.75 1.73,-0.31 4.56,-0.8 4.56,-3.13 0,-1.36 -0.94,-2.97 -4.28,-2.97 -3.34,0 -4.56,2.21 -5.2,4.57 -0.1,0.45 -0.14,0.59 -0.63,0.59 -0.59,0 -0.59,-0.23 -0.59,-0.94 v -4.28 c 0,-0.59 0,-0.9 0.5,-0.9 0.31,0 0.97,0.73 1.67,1.5 1.53,-1.44 3.41,-1.5 4.25,-1.5 4.53,0 6.2,2.43 6.2,4.9 0,1.33 -0.59,2.38 -1.5,3.2 -1.32,1.22 -2.94,1.5 -4.15,1.72 -2.79,0.49 -5.05,0.91 -5.05,2.75 0,1.11 0.94,2.47 4.25,2.47 4.05,0 4.22,-2.83 4.28,-3.83 0.05,-0.39 0.45,-0.39 0.6,-0.39 0.59,0 0.59,0.25 0.59,0.91 z"
         id="path726" /></g>  </g>
  <g
     id="g1004"
     transform="translate(33.408691,-82.051745)"
     style="fill:#ff0000">
    <g
       word-spacing="normal"
       letter-spacing="normal"
       font-size-adjust="none"
       font-stretch="normal"
       font-weight="normal"
       font-variant="normal"
       font-style="normal"
       stroke-miterlimit="10.433"
       xml:space="preserve"
       transform="matrix(0.3,0,0,-0.3,-52.5,222.75)"
       id="g1002"
       style="font-style:normal;font-variant:normal;font-weight:normal;font-stretch:normal;letter-spacing:normal;word-spacing:normal;text-anchor:start;fill:#ff0000;fill-opacity:1;fill-rule:evenodd;stroke:#000000;stroke-linecap:butt;stroke-linejoin:miter;stroke-miterlimit:10.43299961;stroke-dasharray:none;stroke-dashoffset:0;stroke-opacity:1"><path
         id="path990"
         d="m 482.47,436.59 0.04,0.15 0.04,0.14 0.03,0.14 0.04,0.13 0.03,0.12 0.04,0.12 0.04,0.11 0.04,0.11 0.04,0.1 0.04,0.09 0.05,0.09 0.05,0.08 0.06,0.08 0.06,0.07 0.07,0.07 0.08,0.06 0.08,0.06 0.09,0.05 0.09,0.05 0.11,0.04 0.11,0.04 0.13,0.04 0.13,0.03 0.07,0.01 0.08,0.02 0.07,0.01 0.08,0.01 0.08,0.01 0.09,0.01 0.09,0.01 0.09,0.01 0.09,0.01 h 0.1 l 0.1,0.01 h 0.11 l 0.1,0.01 h 0.11 0.12 0.12 0.12 0.13 c 0.79,0 1.34,0 1.34,0.96 0,0.43 -0.3,0.59 -0.69,0.59 -1.25,0 -4.28,-0.16 -5.53,-0.16 -1.64,0 -5.69,0.16 -7.33,0.16 -0.45,0 -1.04,0 -1.04,-1 0,-0.55 0.4,-0.55 1.7,-0.55 1.14,0 1.64,0 2.88,-0.09 1.2,-0.16 1.54,-0.31 1.54,-1 0,-0.3 -0.09,-0.66 -0.19,-1.05 l -5.73,-22.87 c -1.2,-4.83 -4.58,-7.47 -7.17,-7.47 -1.3,0 -3.94,0.5 -4.74,3.09 0.14,-0.04 0.5,-0.04 0.6,-0.04 1.94,0 3.23,1.68 3.23,3.18 0,1.6 -1.34,2.08 -2.19,2.08 -0.89,0 -3.34,-0.59 -3.34,-3.98 0,-3.08 2.64,-5.42 6.58,-5.42 4.59,0 9.76,3.28 11.01,8.21 z"
         inkscape:connector-curvature="0"
         style="fill:#ff0000;stroke-width:0" /><path
         id="path992"
         d="m 501.47,438.11 -0.06,-0.03 -0.05,-0.03 -0.06,-0.03 -0.05,-0.03 -0.05,-0.04 -0.05,-0.03 -0.05,-0.04 -0.05,-0.04 -0.04,-0.04 -0.04,-0.04 -0.04,-0.04 -0.04,-0.04 -0.04,-0.05 -0.03,-0.04 -0.04,-0.05 -0.03,-0.05 -0.03,-0.05 -0.03,-0.05 -0.02,-0.05 -0.03,-0.05 -0.02,-0.06 -0.02,-0.05 -0.02,-0.06 -0.02,-0.06 -0.01,-0.05 -0.01,-0.06 -0.02,-0.06 v -0.06 l -0.01,-0.07 -0.01,-0.06 v -0.06 -0.07 c 0,-0.95 0.66,-1.64 1.64,-1.64 0.94,0 1.67,0.6 1.67,1.71 0,3.11 -4.84,3.11 -5.83,3.11 -5.21,0 -8.45,-4.02 -8.45,-8.02 0,-4.39 3.72,-7.87 8.28,-7.87 5.21,0 6.42,4.1 6.42,4.53 0,0.4 -0.45,0.4 -0.59,0.4 -0.45,0 -0.48,-0.09 -0.67,-0.59 -0.77,-2.16 -2.61,-3.24 -4.74,-3.24 -2.4,0 -5.53,1.79 -5.53,6.8 0,4.42 2.16,6.86 5.39,6.86 0.46,0 2.13,0 3.38,-0.51 z"
         inkscape:connector-curvature="0"
         style="fill:#ff0000;stroke-width:0" /><path
         id="path994"
         d="m 495.53,415.84 v -1.25 c 2.33,0 2.61,-0.25 2.61,-1.96 v -7.22 c -1.28,1.27 -2.96,1.99 -4.88,1.99 l 0.17,-0.97 c 1.68,0 3.18,-0.77 4.14,-2.02 0.43,-0.56 0.43,-0.59 0.43,-1.26 v -7.45 c -0.91,-1.65 -2.68,-3.04 -4.94,-3.04 -1.95,0 -3.36,1.16 -4.05,2.16 -0.7,1.05 -1.11,2.45 -1.11,4.67 0,0.81 0,3.42 1.42,5.06 1.39,1.57 3.1,1.88 4.11,1.88 l -0.17,0.97 c -4.64,0 -8.53,-3.49 -8.53,-7.88 0,-4.34 3.69,-7.82 8.11,-7.82 2.86,0 4.56,1.53 5.16,2.15 v -2.15 l 5.37,0.34 v 1.25 c -2.34,0 -2.62,0.25 -2.62,1.95 v 20.99 z"
         inkscape:connector-curvature="0"
         style="fill:#ff0000;stroke-width:0" /><path
         id="path996"
         d="m 512.44,413.54 v 0.09 l -0.01,0.1 -0.01,0.09 -0.02,0.1 -0.02,0.09 -0.03,0.09 -0.03,0.09 -0.03,0.09 -0.04,0.08 -0.04,0.09 -0.05,0.08 -0.05,0.08 -0.06,0.08 -0.05,0.08 -0.07,0.07 -0.06,0.07 -0.07,0.07 -0.07,0.06 -0.08,0.07 -0.08,0.05 -0.08,0.06 -0.09,0.05 -0.08,0.04 -0.1,0.05 -0.09,0.03 -0.1,0.04 -0.09,0.03 -0.11,0.02 -0.1,0.02 -0.11,0.01 -0.1,0.01 h -0.11 c -1.05,0 -1.99,-0.82 -1.99,-1.98 0,-1.25 1.02,-2.02 1.99,-2.02 1.12,0 2.03,0.86 2.03,2.02 z"
         inkscape:connector-curvature="0"
         style="fill:#ff0000;stroke-width:0" /><path
         id="path998"
         d="m 507.14,407.02 v -1.25 c 2.19,0 2.5,-0.22 2.5,-1.92 v -9.06 c 0,-1.5 -0.34,-1.5 -2.61,-1.5 v -1.25 c 0.06,0 2.5,0.14 3.91,0.14 1.22,0 2.47,-0.03 3.68,-0.14 v 1.25 c -2.01,0 -2.37,0 -2.37,1.47 v 12.64 z"
         inkscape:connector-curvature="0"
         style="fill:#ff0000;stroke-width:0" /><path
         id="path1000"
         d="m 529.56,406.68 v 0.05 0.06 0.05 0.05 0.05 0.04 l -0.01,0.05 v 0.04 0.04 l -0.01,0.04 v 0.04 l -0.01,0.04 v 0.03 l -0.01,0.03 -0.01,0.04 -0.01,0.03 -0.01,0.02 -0.02,0.03 -0.01,0.02 -0.02,0.03 -0.02,0.02 -0.02,0.02 -0.02,0.01 -0.03,0.02 -0.02,0.01 -0.03,0.01 -0.03,0.01 -0.04,0.01 h -0.01 l -0.02,0.01 h -0.02 -0.02 -0.02 l -0.02,0.01 h -0.02 -0.03 c -0.17,0 -0.25,0 -0.7,-0.43 -0.06,-0.03 -0.4,-0.34 -0.62,-0.53 -1.05,0.74 -2.36,0.96 -3.66,0.96 -4.99,0 -6.17,-2.63 -6.17,-4.36 0,-1.13 0.5,-2.02 1.33,-2.72 1.32,-1.16 2.65,-1.39 4.81,-1.75 1.73,-0.31 4.56,-0.8 4.56,-3.13 0,-1.36 -0.94,-2.97 -4.28,-2.97 -3.34,0 -4.56,2.21 -5.2,4.57 -0.1,0.45 -0.14,0.59 -0.63,0.59 -0.59,0 -0.59,-0.23 -0.59,-0.94 v -4.28 c 0,-0.59 0,-0.9 0.5,-0.9 0.31,0 0.97,0.73 1.67,1.5 1.53,-1.44 3.41,-1.5 4.25,-1.5 4.53,0 6.2,2.43 6.2,4.9 0,1.33 -0.59,2.38 -1.5,3.2 -1.32,1.22 -2.94,1.5 -4.15,1.72 -2.79,0.49 -5.05,0.91 -5.05,2.75 0,1.11 0.94,2.47 4.25,2.47 4.05,0 4.22,-2.83 4.28,-3.83 0.05,-0.39 0.45,-0.39 0.6,-0.39 0.59,0 0.59,0.25 0.59,0.91 z"
         inkscape:connector-curvature="0"
         style="fill:#ff0000;stroke-width:0" /></g>  </g>
</svg>
